<svg xmlns="http://www.w3.org/2000/svg" viewBox="0 0 1024 1024" width="64" height="64">
	<defs>
		<clipPath clipPathUnits="userSpaceOnUse" id="cp1">
			<path d="M0 0L1024 0L1024 1024L0 1024Z" />
		</clipPath>
	</defs>
	<style>
		.shp0 { fill: #ffffff } 
		.shp1 { fill: #ffffff } 
	</style>
	<g clip-path="url(#cp1)">
		<path fill-rule="evenodd" class="shp0" d="M733.87 716.8C727.13 716.79 720.57 714.68 715.09 710.78L526.35 576.44C474.7 539.78 443.93 480.43 443.73 417.09L443.73 135.03C443.72 128.24 447.74 122.08 453.97 119.36L727.04 1.4C731.35 -0.46 736.24 -0.46 740.56 1.4L1013.62 119.36C1019.85 122.08 1023.87 128.24 1023.86 135.03L1023.86 417.09C1023.64 480.43 992.87 539.77 941.23 576.44L752.64 710.79C747.16 714.7 740.6 716.8 733.87 716.8ZM477.87 146.24L477.87 417.09C478.05 469.39 503.48 518.38 546.13 548.64L733.87 682.27L921.6 548.64C964.26 518.38 989.68 469.39 989.87 417.09L989.87 146.24L733.87 35.65L477.87 146.24Z" />
		<path fill-rule="evenodd" class="shp0" d="M733.87 636.48C730.32 636.48 726.86 635.37 723.97 633.31L565.95 520.84C532.28 496.99 512.19 458.35 512 417.09L512 179.87C511.99 173.07 516.01 166.92 522.24 164.2L727.04 75.72C731.35 73.86 736.24 73.86 740.56 75.72L945.36 164.2C951.58 166.92 955.61 173.07 955.6 179.87L955.6 417.09C955.42 458.36 935.32 496.99 901.65 520.84L743.63 633.31C740.78 635.35 737.37 636.45 733.87 636.48ZM585.74 493.12L733.87 598.46L881.99 493.04C906.68 475.61 921.44 447.32 921.6 417.09L921.6 191.15L733.87 110.03L546.13 191.15L546.13 417.09C546.32 447.31 561.06 475.59 585.74 493.04L585.74 493.12ZM694.84 463.24C691.14 463.24 687.55 462.04 684.6 459.83L606.58 401.32C599.04 395.67 597.52 384.97 603.17 377.43C608.83 369.89 619.52 368.36 627.06 374.02L691.92 422.6L837.55 240.47C841.35 235.7 847.42 233.33 853.45 234.25C859.48 235.16 864.56 239.23 866.78 244.91C869.01 250.59 868.03 257.02 864.22 261.78L708.27 456.82C705.01 460.91 700.06 463.27 694.84 463.24ZM665.6 1024L85.33 1024C38.23 1023.94 0.06 985.77 0 938.67L0 460.8C0.06 413.7 38.23 375.52 85.33 375.47L460.8 375.47C470.23 375.47 477.87 383.11 477.87 392.53C477.87 401.96 470.23 409.6 460.8 409.6L85.33 409.6C57.06 409.6 34.13 432.52 34.13 460.8L34.13 938.67C34.13 966.94 57.06 989.87 85.33 989.87L665.6 989.87C693.88 989.87 716.8 966.94 716.8 938.67L716.8 699.73C716.8 690.31 724.44 682.67 733.87 682.67C743.29 682.67 750.93 690.31 750.93 699.73L750.93 938.67C750.88 985.77 712.71 1023.94 665.6 1024Z" />
		<path class="shp1" d="M85.33 290.13C85.63 130.02 215.36 0.3 375.47 0L375.47 34.13C234.2 34.43 119.76 148.87 119.47 290.13L85.33 290.13Z" />
		<path fill-rule="evenodd" class="shp0" d="M127.69 226.83C122.45 247.53 119.68 268.78 119.47 290.13L119.47 290.13L119.47 375.47L187.73 375.47L187.73 290.13C187.74 223.06 223.52 161.09 281.6 127.56C339.69 94.02 411.25 94.02 469.33 127.56C474.66 130.58 477.95 136.23 477.97 142.36C477.98 148.48 474.71 154.14 469.4 157.19C464.09 160.24 457.55 160.21 452.27 157.12C404.74 129.68 346.19 129.68 298.67 157.12C251.14 184.55 221.87 235.26 221.87 290.13L221.87 392.53C221.87 401.96 214.23 409.6 204.8 409.6L102.4 409.6C92.97 409.6 85.33 401.96 85.33 392.53L85.33 290.13C85.33 290.02 85.33 289.91 85.34 289.8C85.58 265.72 88.69 241.76 94.6 218.42C95.55 213.87 98.39 209.94 102.41 207.6C106.43 205.27 111.26 204.75 115.68 206.18C124.33 209.03 129.49 217.9 127.69 226.83ZM199.56 104.41C195.53 107.91 191.78 111.71 188.33 115.78C181.81 122.21 171.48 122.65 164.44 116.8C160.91 113.82 158.79 109.5 158.59 104.88C158.39 100.26 160.13 95.78 163.4 92.5C167.33 87.92 171.59 83.62 176.13 79.63C229.94 28.69 301.16 0.21 375.25 0C375.32 0 375.4 0 375.47 0C449.32 -0.07 520.4 28.08 574.19 78.68C579.31 83.47 580.98 90.9 578.4 97.41C575.82 103.93 569.52 108.21 562.52 108.2C558.18 108.2 554.01 106.55 550.84 103.58C503.38 58.92 440.64 34.08 375.47 34.13C375.47 34.13 375.47 34.13 375.47 34.13L375.47 34.13C310.01 34.26 247.08 59.41 199.56 104.41ZM131.74 142.47C136.15 141.41 140.81 142.15 144.67 144.52C146.54 145.75 148.17 147.31 149.47 149.13C150.81 150.9 151.82 152.9 152.46 155.03C153.93 161.32 151.78 167.9 146.88 172.1C145.26 173.51 143.39 174.59 141.36 175.29C137.05 176.56 132.43 176.24 128.32 174.41C127.31 173.91 126.32 173.34 125.39 172.7C124.51 172.07 123.72 171.31 123.07 170.45C122.24 169.63 121.54 168.7 120.98 167.68L119.6 164.64C118.29 160.1 118.74 155.22 120.85 150.99C123.31 146.91 127.19 143.88 131.74 142.47ZM443.73 870.4L307.2 870.4C302.14 870.4 297.35 868.15 294.11 864.26C290.87 860.38 289.52 855.26 290.42 850.28L315.17 714.19C279.33 688.08 264.37 641.88 278.1 599.72C291.83 557.56 331.13 529.02 375.47 529.02C419.81 529.02 459.11 557.56 472.83 599.72C486.56 641.88 471.6 688.08 435.76 714.19L460.51 850.28C461.42 855.26 460.07 860.38 456.83 864.26C453.59 868.15 448.79 870.4 443.73 870.4ZM327.68 836.27L423.25 836.27L400.11 709.1C398.81 701.95 402.19 694.75 408.52 691.18C435.74 676.1 449.32 644.51 441.53 614.38C433.73 584.25 406.55 563.21 375.43 563.21C344.31 563.21 317.13 584.25 309.34 614.38C301.55 644.51 315.12 676.1 342.34 691.18C348.68 694.75 352.06 701.95 350.75 709.1L327.68 836.27Z" />
	</g>
</svg>