<svg xmlns="http://www.w3.org/2000/svg" viewBox="0 0 1024 1024" width="50" height="50">
	<defs>
		<clipPath clipPathUnits="userSpaceOnUse" id="cp1">
			<path d="M0 0L1024 0L1024 1024L0 1024Z" />
		</clipPath>
	</defs>
	<g clip-path="url(#cp1)">
		<path style="fill: #ffffff" d="M665.6 221.87C670.13 221.87 674.47 220.07 677.67 216.87C680.87 213.67 682.67 209.33 682.67 204.8L682.67 170.67C682.67 161.24 675.03 153.6 665.6 153.6C656.18 153.6 648.54 161.24 648.54 170.67L648.54 204.8C648.53 209.33 650.33 213.67 653.53 216.87C656.73 220.07 661.07 221.87 665.6 221.87ZM597.33 221.87C601.86 221.87 606.2 220.07 609.4 216.87C612.6 213.67 614.4 209.33 614.4 204.8L614.4 170.67C614.4 161.24 606.76 153.6 597.34 153.6C587.91 153.6 580.27 161.24 580.27 170.67L580.27 204.8C580.27 209.33 582.07 213.67 585.27 216.87C588.47 220.07 592.81 221.87 597.33 221.87ZM443.73 989.87C434.31 989.87 426.67 997.51 426.67 1006.93C426.67 1016.36 434.31 1024 443.73 1024L580.27 1024C589.69 1024 597.33 1016.36 597.33 1006.93C597.33 997.51 589.69 989.87 580.27 989.87L443.73 989.87Z" />
		<path style="fill: #ffffff" fill-rule="evenodd" d="M460.69 589.05C513.63 570.31 572.57 581.94 614.42 619.4C645.55 647.23 664 686.54 665.5 728.28C667 770.01 651.42 810.55 622.36 840.54C606 857.79 597.01 880.76 597.33 904.53C597.3 932.8 574.4 955.7 546.13 955.73L477.87 955.73C449.6 955.7 426.7 932.8 426.67 904.53C426.83 880.51 417.65 857.36 401.08 839.97C367.72 805.26 352.62 756.89 360.3 709.36C369.26 653.92 407.75 607.79 460.69 589.05ZM498.3 615.17C453.23 620.31 414.97 650.56 399.57 693.23C384.18 735.9 394.31 783.61 425.72 816.35C448.4 840.08 460.98 871.69 460.8 904.52C460.81 913.94 468.44 921.59 477.87 921.6L546.13 921.6C555.56 921.59 563.19 913.95 563.2 904.53C562.86 871.88 575.3 840.39 597.86 816.79C620.45 793.47 632.56 761.94 631.39 729.49C630.22 697.04 615.86 666.47 591.65 644.83C569.86 625.16 541.51 614.3 512.15 614.39C507.52 614.4 502.9 614.65 498.3 615.17ZM512 546.13C502.58 546.13 494.93 538.49 494.93 529.07L494.93 494.93C494.93 485.51 502.57 477.87 512 477.87C521.42 477.87 529.07 485.51 529.07 494.93L529.07 529.07C529.07 538.49 521.43 546.14 512 546.13ZM379.25 576.98C383.56 581.3 385.25 587.58 383.67 593.47C382.09 599.36 377.49 603.96 371.6 605.53C365.71 607.11 359.43 605.43 355.12 601.12L330.98 576.98C326.66 572.68 324.97 566.39 326.54 560.49C328.12 554.59 332.73 549.99 338.62 548.41C344.52 546.84 350.81 548.53 355.12 552.85L379.25 576.98ZM273.07 750.94C263.64 750.94 256 743.3 256 733.87C256 724.44 263.64 716.81 273.07 716.81L307.2 716.81C316.62 716.81 324.27 724.44 324.27 733.87C324.27 743.3 316.63 750.94 307.2 750.94L273.07 750.94ZM325.98 902.82C325.98 898.29 327.78 893.95 330.98 890.75L355.12 866.62C359.43 862.31 365.71 860.62 371.6 862.2C377.49 863.78 382.09 868.38 383.67 874.27C385.24 880.16 383.56 886.44 379.25 890.75L355.12 914.89C351.92 918.09 347.58 919.89 343.05 919.89C338.52 919.89 334.18 918.09 330.98 914.89C327.78 911.68 325.98 907.34 325.98 902.82ZM698.02 564.92C698.02 569.45 696.22 573.79 693.02 576.99L668.89 601.12C664.57 605.43 658.29 607.11 652.4 605.54C646.51 603.96 641.91 599.36 640.33 593.47C638.76 587.58 640.44 581.3 644.75 576.99L668.89 552.85C672.08 549.65 676.42 547.85 680.95 547.85C685.48 547.85 689.82 549.65 693.02 552.85C696.22 556.05 698.02 560.39 698.02 564.92ZM716.8 750.94C707.38 750.94 699.73 743.3 699.73 733.87C699.73 724.44 707.37 716.81 716.8 716.81L750.93 716.81C760.36 716.81 768 724.44 768 733.87C768 743.3 760.36 750.94 750.93 750.94L716.8 750.94ZM693.01 890.75C697.34 895.06 699.03 901.35 697.45 907.25C695.88 913.15 691.27 917.75 685.38 919.33C679.48 920.9 673.19 919.21 668.88 914.89L644.75 890.75C640.44 886.44 638.76 880.16 640.33 874.27C641.91 868.38 646.51 863.78 652.4 862.2C658.29 860.62 664.57 862.31 668.88 866.62L693.01 890.75ZM1024 221.87C1024 231.29 1016.36 238.93 1006.93 238.93C997.51 238.93 989.87 231.29 989.87 221.87C989.86 212.45 982.22 204.81 972.8 204.8L894.83 204.8C875.44 224.77 806.42 290.14 733.87 290.14L569.39 290.14L471.73 371.51C468.66 374.07 464.8 375.47 460.8 375.47L273.07 375.47C266.16 375.47 259.94 371.31 257.3 364.93C254.66 358.56 256.12 351.22 261 346.34L329.59 277.74L282.5 254.2C279.53 252.7 277.06 250.35 275.41 247.46C248.02 247.39 194.1 212.58 178.22 201.9C173.5 198.73 170.67 193.42 170.67 187.73C170.67 182.05 173.5 176.74 178.22 173.57C194.1 162.89 248.02 128.08 275.41 128.01C277.06 125.12 279.53 122.77 282.5 121.27L329.58 97.73L261 29.14C256.12 24.26 254.66 16.92 257.3 10.54C259.94 4.16 266.16 0 273.07 0L460.8 0C464.8 0 468.66 1.4 471.73 3.96L569.39 85.33L733.87 85.33C806.42 85.33 875.44 150.7 894.83 170.67L972.8 170.67C1001.06 170.7 1023.97 193.6 1024 221.87ZM516.06 290.14L365.47 290.14L314.27 341.34L454.62 341.34L516.06 290.14ZM307.2 228.39L341.33 245.45L341.33 130.02L307.2 147.09L307.2 228.39ZM219.68 187.73C236.24 198.56 254.2 207.06 273.07 213L273.07 162.46C254.2 168.41 236.24 176.91 219.68 187.73ZM365.47 85.34L516.06 85.34L454.62 34.14L314.27 34.14L365.47 85.34ZM375.47 256L426.67 256L426.67 119.47L375.47 119.47L375.47 256ZM716.8 119.47L460.8 119.47L460.8 256L716.8 256L716.8 119.47ZM863.52 187.74C843.1 168.1 797.7 129.3 750.93 121.1L750.93 254.37C797.7 246.17 843.1 207.37 863.52 187.74ZM1019 687.67C1022.2 690.87 1024 695.21 1024 699.74C1023.97 728 1001.06 750.91 972.8 750.94L860.4 750.94L865.4 755.94C871.96 762.62 871.91 773.34 865.29 779.96C858.67 786.58 847.95 786.63 841.27 780.07L807.14 745.95C800.5 739.27 800.5 728.47 807.14 721.79L841.27 687.67C847.94 681.08 858.69 681.11 865.32 687.74C871.96 694.38 871.99 705.13 865.4 711.8L860.4 716.8L972.8 716.8C982.22 716.79 989.86 709.16 989.87 699.74C989.87 695.21 991.66 690.87 994.86 687.67C998.07 684.46 1002.41 682.67 1006.93 682.67C1011.46 682.67 1015.8 684.47 1019 687.67ZM1019 278.07C1022.2 281.27 1024 285.61 1024 290.14L1024 358.4C1024 367.83 1016.36 375.47 1006.93 375.47C997.51 375.47 989.87 367.83 989.87 358.4L989.87 290.14C989.87 285.61 991.66 281.27 994.86 278.07C998.07 274.86 1002.41 273.07 1006.93 273.07C1011.46 273.07 1015.8 274.87 1019 278.07ZM1019 414.6C1022.2 417.8 1024 422.14 1024 426.67L1024 494.94C1024 504.36 1016.36 512 1006.93 512C997.51 512 989.87 504.36 989.87 494.94L989.87 426.67C989.87 422.14 991.66 417.8 994.86 414.6C998.07 411.4 1002.41 409.6 1006.93 409.6C1011.46 409.6 1015.8 411.4 1019 414.6ZM1019 551.13C1022.2 554.33 1024 558.68 1024 563.2L1024 631.47C1024 640.89 1016.36 648.53 1006.93 648.53C997.51 648.53 989.87 640.9 989.87 631.47L989.87 563.2C989.87 558.68 991.66 554.33 994.86 551.13C998.07 547.93 1002.41 546.13 1006.93 546.14C1011.46 546.13 1015.8 547.93 1019 551.13ZM51.2 170.67L78.27 170.67L73.27 165.67C66.71 158.99 66.75 148.26 73.38 141.64C80 135.02 90.72 134.97 97.4 141.54L131.52 175.66C138.17 182.34 138.17 193.13 131.52 199.81L97.4 233.93C93.09 238.29 86.79 240.01 80.87 238.44C74.96 236.86 70.33 232.24 68.76 226.33C67.19 220.41 68.91 214.1 73.26 209.8L78.26 204.8L51.2 204.8C41.78 204.81 34.14 212.45 34.13 221.87C34.13 231.29 26.49 238.93 17.07 238.93C7.64 238.93 0 231.29 0 221.87C0.03 193.6 22.94 170.7 51.2 170.67ZM0 699.74C0 690.31 7.64 682.67 17.07 682.67C26.49 682.67 34.13 690.31 34.13 699.74C34.14 709.16 41.78 716.8 51.2 716.81L68.27 716.81C77.69 716.81 85.33 724.44 85.33 733.87C85.33 743.3 77.69 750.94 68.27 750.94L51.2 750.94C22.94 750.9 0.03 728 0 699.74ZM5 370.47C1.8 367.27 0 362.93 0 358.4L0 290.14C0 280.71 7.64 273.07 17.07 273.07C26.49 273.07 34.13 280.71 34.13 290.13L34.13 358.4C34.13 362.93 32.34 367.27 29.14 370.47C25.93 373.67 21.59 375.47 17.07 375.47C12.54 375.47 8.2 373.67 5 370.47ZM5 507C1.8 503.8 0 499.46 0 494.93L0 426.67C0 417.24 7.64 409.6 17.07 409.6C26.49 409.6 34.13 417.24 34.13 426.67L34.13 494.93C34.13 499.46 32.34 503.8 29.14 507C25.93 510.21 21.59 512 17.07 512C12.54 512 8.2 510.21 5 507ZM5 643.54C1.8 640.34 0 635.99 0 631.47L0 563.2C0 553.78 7.64 546.14 17.07 546.14C26.49 546.14 34.13 553.78 34.13 563.2L34.13 631.47C34.13 636 32.34 640.34 29.14 643.54C25.93 646.74 21.59 648.54 17.07 648.54C12.54 648.54 8.2 646.74 5 643.54ZM124.46 721.8C127.67 718.6 132.01 716.8 136.53 716.81L204.8 716.81C214.22 716.81 221.87 724.44 221.87 733.87C221.87 743.3 214.23 750.94 204.8 750.94L136.53 750.94C132.01 750.94 127.66 749.14 124.46 745.94C121.26 742.74 119.46 738.4 119.47 733.87C119.47 729.34 121.26 725 124.46 721.8Z" />
	</g>
</svg>