<svg xmlns="http://www.w3.org/2000/svg" viewBox="0 0 1024 1024" width="64" height="64">
	<defs>
		<clipPath clipPathUnits="userSpaceOnUse" id="cp1">
			<path d="M0 0L1024 0L1024 1024L0 1024Z" />
		</clipPath>
	</defs>
	<style>
		tspan { white-space:pre }
		.shp0 { fill: #a4c2f7 } 
		.shp1 { fill: #cad9fc } 
		.shp2 { fill: #e8edfc } 
		.shp3 { fill: #35495e } 
		.shp4 { fill: #7facfa } 
		.shp5 { fill: #ffffff } 
		.shp6 { fill: #428dff } 
	</style>
	<g clip-path="url(#cp1)">
		<path class="shp0" d="M460.8 142.34C408 111.85 342.94 111.85 290.13 142.34C237.33 172.82 204.8 229.16 204.8 290.13L204.8 443.73L102.4 443.73L102.4 290.13C102.38 181.21 167.09 82.69 267.07 39.45C367.05 -3.79 483.16 16.52 562.52 91.14L460.8 142.34Z" />
		<path class="shp1" d="M460.8 392.53L85.33 392.53C47.63 392.53 17.07 423.1 17.07 460.8L17.07 938.67C17.07 976.37 47.63 1006.93 85.33 1006.93L665.6 1006.93C703.3 1006.93 733.87 976.37 733.87 938.67L733.87 699.73L460.8 392.53Z" />
		<path class="shp2" d="M682.67 392.53L80.45 392.53C44.12 393.92 15.76 424.46 17.07 460.8L17.07 938.67C15.76 975.01 44.12 1005.55 80.45 1006.93L619.28 1006.93C655.62 1005.55 683.97 975.01 682.67 938.67L682.67 392.53Z" />
		<path class="shp3" d="M416.94 706.05L441.91 843.28C442.36 845.77 441.68 848.34 440.05 850.28C438.43 852.22 436.02 853.34 433.49 853.33L317.44 853.33C314.91 853.33 312.51 852.21 310.89 850.27C309.27 848.33 308.59 845.77 309.04 843.28L333.99 706.05C300.02 687.15 283.11 647.68 292.87 610.05C302.63 572.42 336.59 546.14 375.47 546.14C414.34 546.14 448.31 572.42 458.07 610.05C467.83 647.68 450.92 687.15 416.94 706.05Z" />
		<path class="shp4" d="M337.92 836.27C335.39 836.26 332.99 835.14 331.38 833.19C329.76 831.25 329.09 828.69 329.54 826.2L353.02 697.14L342.43 691.18C309.97 673.1 297.86 632.43 315.12 599.54C323.61 583.01 338.62 570.77 356.52 565.78C390.02 555.82 425.63 572.78 439.02 605.06C452.41 637.33 439.27 674.52 408.56 691.2L397.96 697.16L421.44 826.22C421.9 828.71 421.21 831.28 419.59 833.22C417.96 835.16 415.55 836.28 413.01 836.27L337.92 836.27Z" />
		<path class="shp2" d="M1006.93 140.63L1006.93 417.11C1006.78 474.92 978.67 529.09 931.5 562.52L742.74 696.83C737.48 700.76 730.26 700.76 724.99 696.83L708.27 684.88L536.23 562.52C489 529.15 460.88 474.94 460.8 417.11L460.8 140.63C460.81 137.23 462.82 134.16 465.92 132.78L708.27 28.16L730.45 18.6C732.61 17.58 735.12 17.58 737.28 18.6L1001.81 132.78C1004.92 134.16 1006.92 137.23 1006.93 140.63Z" />
		<path class="shp5" d="M955.73 140.63L955.73 417.11C955.57 474.92 927.47 529.09 880.3 562.52L708.27 684.88L536.23 562.52C489 529.15 460.88 474.94 460.8 417.11L460.8 140.63C460.81 137.23 462.82 134.16 465.92 132.78L708.27 28.16L950.61 132.78C953.72 134.16 955.72 137.23 955.73 140.63Z" />
		<path class="shp0" d="M575.85 506.88C546.68 486.25 529.26 452.82 529.07 417.09L529.07 179.87L733.87 91.43L938.67 179.9L938.67 417.13C938.46 452.84 921.04 486.27 891.87 506.88L733.87 619.42L575.85 506.88Z" />
		<path class="shp5" d="M80.45 1006.93L131.65 1006.93C95.32 1005.55 66.96 975.01 68.27 938.67L68.27 460.8C66.96 424.46 95.32 393.92 131.65 392.53L153.6 392.53L153.6 290.13C153.58 149.06 261.09 31.22 401.58 18.33C392.98 17.51 384.27 17.07 375.47 17.07C224.66 17.07 102.4 139.32 102.4 290.13L102.4 392.53L80.45 392.53C44.12 393.92 15.76 424.46 17.07 460.8L17.07 938.67C15.76 975.01 44.12 1005.55 80.45 1006.93Z" />
		<path class="shp1" d="M136.53 512L17.07 512C7.64 512 0 504.36 0 494.93C0 485.51 7.64 477.87 17.07 477.87L136.53 477.87C145.96 477.87 153.6 485.51 153.6 494.93C153.6 504.36 145.96 512 136.53 512ZM136.53 580.27L17.07 580.27C7.64 580.27 0 572.63 0 563.2C0 553.77 7.64 546.13 17.07 546.13L136.53 546.13C145.96 546.13 153.6 553.77 153.6 563.2C153.6 572.63 145.96 580.27 136.53 580.27ZM136.53 648.53L17.07 648.53C7.64 648.53 0 640.89 0 631.47C0 622.04 7.64 614.4 17.07 614.4L136.53 614.4C145.96 614.4 153.6 622.04 153.6 631.47C153.6 640.89 145.96 648.53 136.53 648.53ZM136.53 716.8L17.07 716.8C7.64 716.8 0 709.16 0 699.73C0 690.31 7.64 682.67 17.07 682.67L136.53 682.67C145.96 682.67 153.6 690.31 153.6 699.73C153.6 709.16 145.96 716.8 136.53 716.8ZM136.53 785.07L17.07 785.07C7.64 785.07 0 777.43 0 768C0 758.57 7.64 750.93 17.07 750.93L136.53 750.93C145.96 750.93 153.6 758.57 153.6 768C153.6 777.43 145.96 785.07 136.53 785.07ZM136.53 853.33L17.07 853.33C7.64 853.33 0 845.69 0 836.27C0 826.84 7.64 819.2 17.07 819.2L136.53 819.2C145.96 819.2 153.6 826.84 153.6 836.27C153.6 845.69 145.96 853.33 136.53 853.33ZM136.53 921.6L17.07 921.6C7.64 921.6 0 913.96 0 904.53C0 895.11 7.64 887.47 17.07 887.47L136.53 887.47C145.96 887.47 153.6 895.11 153.6 904.53C153.6 913.96 145.96 921.6 136.53 921.6ZM733.87 716.8L614.4 716.8C604.98 716.8 597.33 709.16 597.33 699.73C597.33 690.31 604.98 682.67 614.4 682.67L733.87 682.67C743.29 682.67 750.93 690.31 750.93 699.73C750.93 709.16 743.29 716.8 733.87 716.8ZM733.87 785.07L614.4 785.07C604.98 785.07 597.33 777.43 597.33 768C597.33 758.57 604.98 750.93 614.4 750.93L733.87 750.93C743.29 750.93 750.93 758.57 750.93 768C750.93 777.43 743.29 785.07 733.87 785.07ZM733.87 853.33L614.4 853.33C604.98 853.33 597.33 845.69 597.33 836.27C597.33 826.84 604.98 819.2 614.4 819.2L733.87 819.2C743.29 819.2 750.93 826.84 750.93 836.27C750.93 845.69 743.29 853.33 733.87 853.33ZM733.87 921.6L614.4 921.6C604.98 921.6 597.33 913.96 597.33 904.53C597.33 895.11 604.98 887.47 614.4 887.47L733.87 887.47C743.29 887.47 750.93 895.11 750.93 904.53C750.93 913.96 743.29 921.6 733.87 921.6Z" />
		<path fill-rule="evenodd" class="shp6" d="M733.87 716.8C727.13 716.79 720.57 714.68 715.09 710.78L526.35 576.44C474.7 539.78 443.93 480.43 443.73 417.09L443.73 135.03C443.72 128.24 447.74 122.08 453.97 119.36L727.04 1.4C731.35 -0.46 736.24 -0.46 740.56 1.4L1013.62 119.36C1019.85 122.08 1023.87 128.24 1023.86 135.03L1023.86 417.09C1023.64 480.43 992.87 539.77 941.23 576.44L752.64 710.79C747.16 714.7 740.6 716.8 733.87 716.8ZM477.87 146.24L477.87 417.09C478.05 469.39 503.48 518.38 546.13 548.64L733.87 682.27L921.6 548.64C964.26 518.38 989.68 469.39 989.87 417.09L989.87 146.24L733.87 35.65L477.87 146.24Z" />
		<path fill-rule="evenodd" class="shp6" d="M733.87 636.48C730.32 636.48 726.86 635.37 723.97 633.31L565.95 520.84C532.28 496.99 512.19 458.35 512 417.09L512 179.87C511.99 173.07 516.01 166.92 522.24 164.2L727.04 75.72C731.35 73.86 736.24 73.86 740.56 75.72L945.36 164.2C951.58 166.92 955.61 173.07 955.6 179.87L955.6 417.09C955.42 458.36 935.32 496.99 901.65 520.84L743.63 633.31C740.78 635.35 737.37 636.45 733.87 636.48ZM585.74 493.12L733.87 598.46L881.99 493.04C906.68 475.61 921.44 447.32 921.6 417.09L921.6 191.15L733.87 110.03L546.13 191.15L546.13 417.09C546.32 447.31 561.06 475.59 585.74 493.04L585.74 493.12ZM694.84 463.24C691.14 463.24 687.55 462.04 684.6 459.83L606.58 401.32C599.04 395.67 597.52 384.97 603.17 377.43C608.83 369.89 619.52 368.36 627.06 374.02L691.92 422.6L837.55 240.47C841.35 235.7 847.42 233.33 853.45 234.25C859.48 235.16 864.56 239.23 866.78 244.91C869.01 250.59 868.03 257.02 864.22 261.78L708.27 456.82C705.01 460.91 700.06 463.27 694.84 463.24ZM665.6 1024L85.33 1024C38.23 1023.94 0.06 985.77 0 938.67L0 460.8C0.06 413.7 38.23 375.52 85.33 375.47L460.8 375.47C470.23 375.47 477.87 383.11 477.87 392.53C477.87 401.96 470.23 409.6 460.8 409.6L85.33 409.6C57.06 409.6 34.13 432.52 34.13 460.8L34.13 938.67C34.13 966.94 57.06 989.87 85.33 989.87L665.6 989.87C693.88 989.87 716.8 966.94 716.8 938.67L716.8 699.73C716.8 690.31 724.44 682.67 733.87 682.67C743.29 682.67 750.93 690.31 750.93 699.73L750.93 938.67C750.88 985.77 712.71 1023.94 665.6 1024Z" />
		<path class="shp5" d="M85.33 290.13C85.63 130.02 215.36 0.3 375.47 0L375.47 34.13C234.2 34.43 119.76 148.87 119.47 290.13L85.33 290.13Z" />
		<path fill-rule="evenodd" class="shp6" d="M127.69 226.83C122.45 247.53 119.68 268.78 119.47 290.13L119.47 290.13L119.47 375.47L187.73 375.47L187.73 290.13C187.74 223.06 223.52 161.09 281.6 127.56C339.69 94.02 411.25 94.02 469.33 127.56C474.66 130.58 477.95 136.23 477.97 142.36C477.98 148.48 474.71 154.14 469.4 157.19C464.09 160.24 457.55 160.21 452.27 157.12C404.74 129.68 346.19 129.68 298.67 157.12C251.14 184.55 221.87 235.26 221.87 290.13L221.87 392.53C221.87 401.96 214.23 409.6 204.8 409.6L102.4 409.6C92.97 409.6 85.33 401.96 85.33 392.53L85.33 290.13C85.33 290.02 85.33 289.91 85.34 289.8C85.58 265.72 88.69 241.76 94.6 218.42C95.55 213.87 98.39 209.94 102.41 207.6C106.43 205.27 111.26 204.75 115.68 206.18C124.33 209.03 129.49 217.9 127.69 226.83ZM199.56 104.41C195.53 107.91 191.78 111.71 188.33 115.78C181.81 122.21 171.48 122.65 164.44 116.8C160.91 113.82 158.79 109.5 158.59 104.88C158.39 100.26 160.13 95.78 163.4 92.5C167.33 87.92 171.59 83.62 176.13 79.63C229.94 28.69 301.16 0.21 375.25 0C375.32 0 375.4 0 375.47 0C449.32 -0.07 520.4 28.08 574.19 78.68C579.31 83.47 580.98 90.9 578.4 97.41C575.82 103.93 569.52 108.21 562.52 108.2C558.18 108.2 554.01 106.55 550.84 103.58C503.38 58.92 440.64 34.08 375.47 34.13C375.47 34.13 375.47 34.13 375.47 34.13L375.47 34.13C310.01 34.26 247.08 59.41 199.56 104.41ZM131.74 142.47C136.15 141.41 140.81 142.15 144.67 144.52C146.54 145.75 148.17 147.31 149.47 149.13C150.81 150.9 151.82 152.9 152.46 155.03C153.93 161.32 151.78 167.9 146.88 172.1C145.26 173.51 143.39 174.59 141.36 175.29C137.05 176.56 132.43 176.24 128.32 174.41C127.31 173.91 126.32 173.34 125.39 172.7C124.51 172.07 123.72 171.31 123.07 170.45C122.24 169.63 121.54 168.7 120.98 167.68L119.6 164.64C118.29 160.1 118.74 155.22 120.85 150.99C123.31 146.91 127.19 143.88 131.74 142.47ZM443.73 870.4L307.2 870.4C302.14 870.4 297.35 868.15 294.11 864.26C290.87 860.38 289.52 855.26 290.42 850.28L315.17 714.19C279.33 688.08 264.37 641.88 278.1 599.72C291.83 557.56 331.13 529.02 375.47 529.02C419.81 529.02 459.11 557.56 472.83 599.72C486.56 641.88 471.6 688.08 435.76 714.19L460.51 850.28C461.42 855.26 460.07 860.38 456.83 864.26C453.59 868.15 448.79 870.4 443.73 870.4ZM327.68 836.27L423.25 836.27L400.11 709.1C398.81 701.95 402.19 694.75 408.52 691.18C435.74 676.1 449.32 644.51 441.53 614.38C433.73 584.25 406.55 563.21 375.43 563.21C344.31 563.21 317.13 584.25 309.34 614.38C301.55 644.51 315.12 676.1 342.34 691.18C348.68 694.75 352.06 701.95 350.75 709.1L327.68 836.27Z" />
	</g>
</svg>