<svg xmlns="http://www.w3.org/2000/svg" viewBox="0 0 64 38" width="64" height="38">
	<defs>
		<clipPath clipPathUnits="userSpaceOnUse" id="cp1">
			<path d="M0 0L64 0L64 38L0 38Z" />
		</clipPath>
	</defs>
	<style>
		tspan { white-space:pre }
		.shp0 { fill: #ffffff } 
	</style>
	<g clip-path="url(#cp1)">
		<path fill-rule="evenodd" class="shp0" d="M31.99 -0.38C46.09 -0.38 56.58 10.2 63.98 19.02C56.75 26.54 46.26 38 31.99 38C17.71 38 9.63 28.95 0 18.8C11.18 6.93 20.29 -0.39 31.99 -0.39L31.99 -0.38ZM31.99 35.87C44.52 35.87 54.06 26.28 61.1 18.93C53.94 10.63 44.31 1.75 31.99 1.75C21.58 1.75 13.32 7.97 2.94 18.8C11.67 28.01 19.32 35.87 31.99 35.87L31.99 35.87Z" />
		<path fill-rule="evenodd" class="shp0" d="M44.78 18.81C44.78 25.86 39.04 31.6 31.99 31.6C24.93 31.6 19.19 25.86 19.19 18.81C19.19 11.75 24.93 6.01 31.99 6.01C39.04 6.01 44.78 11.75 44.78 18.81ZM42.65 18.81C42.65 12.93 37.87 8.14 31.99 8.14C26.11 8.14 21.33 12.93 21.33 18.81C21.33 24.69 26.11 29.47 31.99 29.47C37.87 29.47 42.65 24.68 42.65 18.81Z" />
		<path fill-rule="evenodd" class="shp0" d="M39.45 18.81C39.45 22.92 36.1 26.27 31.99 26.27C27.87 26.27 24.52 22.92 24.52 18.81C24.52 14.69 27.87 11.34 31.99 11.34C36.1 11.34 39.45 14.69 39.45 18.81ZM37.32 18.81C37.32 15.87 34.93 13.47 31.99 13.47C29.05 13.47 26.66 15.87 26.66 18.81C26.66 21.75 29.05 24.14 31.99 24.14C34.93 24.14 37.32 21.75 37.32 18.81Z" />
	</g>
</svg>