<svg xmlns="http://www.w3.org/2000/svg" viewBox="0 0 64 64" width="22" height="22">
	<path fill-rule="evenodd" style="fill: #c9c9c9" d="M25.77 -0.23C40.13 -0.23 51.77 11.41 51.77 25.77C51.77 31.95 49.61 37.63 46.01 42.09L63.19 59.27C64.27 60.35 64.27 62.11 63.19 63.19C62.11 64.27 60.35 64.27 59.27 63.19L42.09 46.01C37.63 49.61 31.95 51.77 25.77 51.77C11.41 51.77 -0.23 40.13 -0.23 25.77C-0.23 11.41 11.41 -0.23 25.77 -0.23ZM25.77 47.77C37.91 47.77 47.77 37.91 47.77 25.77C47.77 13.64 37.91 3.77 25.77 3.77C13.64 3.77 3.77 13.64 3.77 25.77C3.77 37.91 13.64 47.77 25.77 47.77Z" />
</svg>